<svg width="22" height="32" viewBox="0 0 22 32" fill="none" xmlns="http://www.w3.org/2000/svg">
<path d="M12.6833 3.3136V3.44723L12.8161 3.4626C14.5658 3.6653 16.4815 4.15794 18.0968 5.00508C19.7128 5.85256 21.0139 7.04676 21.5645 8.64669C21.7095 9.06798 21.5957 9.46227 21.3286 9.75729C21.0588 10.0553 20.6326 10.25 20.1667 10.25C19.707 10.25 19.285 10.0452 18.8903 9.73357C18.4949 9.42138 18.1402 9.0126 17.8148 8.62408C17.2805 7.9861 16.4785 7.50326 15.5984 7.14592C14.7164 6.78782 13.7442 6.55102 12.8566 6.41181L12.6833 6.38464V6.56V14.5136V14.6472L12.8161 14.6626C14.8596 14.8993 17.127 15.5312 18.8789 16.6595C20.6275 17.7857 21.85 19.3964 21.85 21.6C21.85 23.8036 20.6275 25.4147 18.8789 26.5413C17.127 27.67 14.8596 28.3023 12.8161 28.539L12.6833 28.5544V28.688V31C12.6833 31.4694 12.3028 31.85 11.8333 31.85H10.1667C9.69722 31.85 9.31666 31.4694 9.31666 31V28.6976V28.5629L9.18269 28.5485C7.20329 28.3358 5.27747 27.7795 3.7164 26.9021C2.15492 26.0245 0.968364 24.8318 0.44503 23.3495C0.296783 22.9296 0.408381 22.5365 0.67376 22.2421C0.941918 21.9447 1.3674 21.75 1.83333 21.75C2.29321 21.75 2.71721 21.9544 3.11421 22.2654C3.51177 22.5769 3.8691 22.9847 4.19583 23.3718C4.71195 23.9834 5.47831 24.465 6.34508 24.829C7.21337 25.1936 8.19221 25.4443 9.14423 25.5883L9.31666 25.6144V25.44V17.488V17.3547L9.18432 17.339C7.06092 17.0874 4.79361 16.4033 3.06173 15.2525C1.33203 14.1031 0.15 12.4991 0.15 10.4C0.15 8.19636 1.37249 6.58571 3.12112 5.45951C4.87298 4.33122 7.1404 3.69934 9.18393 3.4626L9.31666 3.44723V3.3136V1C9.31666 0.530558 9.69722 0.15 10.1667 0.15H11.8333C12.3028 0.15 12.6833 0.530558 12.6833 1V3.3136ZM9.31666 6.56V6.38464L9.14342 6.41181C7.91471 6.60451 6.51952 6.98493 5.42706 7.61823C4.33557 8.25096 3.51667 9.15562 3.51667 10.4C3.51667 11.5948 4.31686 12.4932 5.39755 13.1346C6.48025 13.7772 7.87532 14.1824 9.14281 14.3865L9.31666 14.4145V14.2384V6.56ZM12.6833 25.44V25.6154L12.8566 25.5882C14.0853 25.3955 15.4805 25.0151 16.5729 24.3818C17.6644 23.749 18.4833 22.8444 18.4833 21.6C18.4833 20.3556 17.6644 19.451 16.5729 18.8182C15.4805 18.1849 14.0853 17.8045 12.8566 17.6118L12.6833 17.5846V17.76V25.44Z" fill="white" stroke="#FBC558" stroke-width="0.3"/>
</svg>
