<svg width="12" height="14" viewBox="0 0 12 14" fill="none" xmlns="http://www.w3.org/2000/svg">
<path d="M2.65928 6.66667H7.97784V8H2.65928V6.66667ZM3.98892 12H1.32964V1.33333H5.98338V4.66667H9.30748V6.73333L10.6371 5.4V4L6.6482 0H1.32964C0.976997 0 0.638798 0.140476 0.389442 0.390524C0.140087 0.640573 0 0.979711 0 1.33333V12C0 12.3536 0.140087 12.6928 0.389442 12.9428C0.638798 13.1929 0.976997 13.3333 1.32964 13.3333H3.98892V12ZM2.65928 10.6667H5.38504L5.98338 10.0667V9.33333H2.65928V10.6667ZM10.7701 7.33333C10.8366 7.33333 10.9695 7.4 11.036 7.46667L11.9003 8.33333C12.0332 8.46667 12.0332 8.73333 11.9003 8.86667L11.2355 9.53333L9.83933 8.13333L10.5042 7.46667C10.5706 7.4 10.6371 7.33333 10.7701 7.33333ZM10.7701 9.93333L6.71468 14H5.31856V12.6L9.37396 8.53333L10.7701 9.93333Z" fill="#828282"/>
</svg>
