<svg width="14" height="14" viewBox="0 0 14 14" fill="none" xmlns="http://www.w3.org/2000/svg">
<path fill-rule="evenodd" clip-rule="evenodd" d="M9.45964 1.39044V3C10.5 3.5 12.5 4.5 12.5 7.5C12.5 10.5 9.5 12.5 7 12.5C4.5 12.5 1.5 10.5 1.5 7.5C1.5 5 3.5 3.5 4.60242 3V1.38867C1.84097 2.25069 0 4.65372 0 7.51472C0 11.0972 3.13472 13.9997 6.99906 13.9997C10.8643 13.9997 14 11.0972 14 7.51472C14.0009 4.70588 12.1449 2.29666 9.45964 1.39044Z" fill="#EB5757"/>
<path fill-rule="evenodd" clip-rule="evenodd" d="M6.95486 8C7.68636 8 7.99994 7.5388 7.99994 6.93112V1.15519C7.99994 0.548522 7.68636 0 6.95486 0C6.22242 0 5.99994 0.548522 5.99994 1.15519V6.93112C5.99994 7.5388 6.22242 8 6.95486 8Z" fill="#EB5757"/>
</svg>
