<svg width="14" height="14" viewBox="0 0 14 14" fill="none" xmlns="http://www.w3.org/2000/svg">
<path d="M9.75333 5.35111L8.64889 4.25444L7 5.90333L5.35111 4.25444L4.25444 5.35111L5.90333 7L4.25444 8.64889L5.35111 9.75333L7 8.09667L8.64889 9.75333L9.75333 8.64889L8.09667 7L9.75333 5.35111ZM7 0C3.14222 0 0 3.14222 0 7C0 10.8578 3.14222 14 7 14C10.8578 14 14 10.8578 14 7C14 3.14222 10.8578 0 7 0ZM7 12.4444C3.99778 12.4444 1.55556 10.0022 1.55556 7C1.55556 3.99778 3.99778 1.55556 7 1.55556C10.0022 1.55556 12.4444 3.99778 12.4444 7C12.4444 10.0022 10.0022 12.4444 7 12.4444Z" fill="#828282"/>
</svg>
