<svg width="18" height="18" viewBox="0 0 18 18" fill="none" xmlns="http://www.w3.org/2000/svg">
<path d="M17.0155 2.39999H15.1874V3.59999H16.8749V16.8H1.12513V3.59999H2.8126V2.39999H0.984504C0.853014 2.40234 0.723246 2.43229 0.60261 2.48814C0.481974 2.54399 0.372835 2.62464 0.281425 2.72549C0.190015 2.82634 0.118126 2.94541 0.0698629 3.07589C0.0216003 3.20638 -0.0020902 3.34574 0.000144589 3.48599V16.914C-0.0020902 17.0542 0.0216003 17.1936 0.0698629 17.3241C0.118126 17.4546 0.190015 17.5736 0.281425 17.6745C0.372835 17.7753 0.481974 17.856 0.60261 17.9118C0.723246 17.9677 0.853014 17.9976 0.984504 18H17.0155C17.147 17.9976 17.2768 17.9677 17.3974 17.9118C17.518 17.856 17.6272 17.7753 17.7186 17.6745C17.81 17.5736 17.8819 17.4546 17.9301 17.3241C17.9784 17.1936 18.0021 17.0542 17.9999 16.914V3.48599C18.0021 3.34574 17.9784 3.20638 17.9301 3.07589C17.8819 2.94541 17.81 2.82634 17.7186 2.72549C17.6272 2.62464 17.518 2.54399 17.3974 2.48814C17.2768 2.43229 17.147 2.40234 17.0155 2.39999Z" fill="#4F4F4F"/>
<path d="M3.37508 7.19998H4.50007V8.39998H3.37508V7.19998Z" fill="#4F4F4F"/>
<path d="M6.75003 7.19998H7.87501V8.39998H6.75003V7.19998Z" fill="#4F4F4F"/>
<path d="M10.125 7.19998H11.25V8.39998H10.125V7.19998Z" fill="#4F4F4F"/>
<path d="M13.4999 7.19998H14.6249V8.39998H13.4999V7.19998Z" fill="#4F4F4F"/>
<path d="M3.37508 10.2H4.50007V11.4H3.37508V10.2Z" fill="#4F4F4F"/>
<path d="M6.75003 10.2H7.87501V11.4H6.75003V10.2Z" fill="#4F4F4F"/>
<path d="M10.125 10.2H11.25V11.4H10.125V10.2Z" fill="#4F4F4F"/>
<path d="M13.4999 10.2H14.6249V11.4H13.4999V10.2Z" fill="#4F4F4F"/>
<path d="M3.37508 13.2H4.50007V14.4H3.37508V13.2Z" fill="#4F4F4F"/>
<path d="M6.75003 13.2H7.87501V14.4H6.75003V13.2Z" fill="#4F4F4F"/>
<path d="M10.125 13.2H11.25V14.4H10.125V13.2Z" fill="#4F4F4F"/>
<path d="M13.4999 13.2H14.6249V14.4H13.4999V13.2Z" fill="#4F4F4F"/>
<path d="M4.50007 4.8C4.64925 4.8 4.79232 4.73678 4.89781 4.62426C5.0033 4.51174 5.06256 4.35913 5.06256 4.2V0.6C5.06256 0.44087 5.0033 0.288258 4.89781 0.175736C4.79232 0.0632141 4.64925 0 4.50007 0C4.35089 0 4.20781 0.0632141 4.10233 0.175736C3.99684 0.288258 3.93758 0.44087 3.93758 0.6V4.2C3.93758 4.35913 3.99684 4.51174 4.10233 4.62426C4.20781 4.73678 4.35089 4.8 4.50007 4.8Z" fill="#4F4F4F"/>
<path d="M13.4999 4.8C13.6491 4.8 13.7922 4.73678 13.8977 4.62426C14.0031 4.51174 14.0624 4.35913 14.0624 4.2V0.6C14.0624 0.44087 14.0031 0.288258 13.8977 0.175736C13.7922 0.0632141 13.6491 0 13.4999 0C13.3507 0 13.2077 0.0632141 13.1022 0.175736C12.9967 0.288258 12.9374 0.44087 12.9374 0.6V4.2C12.9374 4.35913 12.9967 4.51174 13.1022 4.62426C13.2077 4.73678 13.3507 4.8 13.4999 4.8Z" fill="#4F4F4F"/>
<path d="M6.18755 2.39999H11.8125V3.59999H6.18755V2.39999Z" fill="#4F4F4F"/>
</svg>
