<svg width="25" height="11" viewBox="0 0 25 11" fill="none" xmlns="http://www.w3.org/2000/svg">
<path d="M3.88258 8.78809L0 1.55084C1.85606 2.095 2.28851 2.5938 2.27273 2.77519C4.24243 2.57929 4.67172 3.32841 4.64015 3.72746C3.8447 2.90034 2.73043 3.47352 2.27273 3.8635C3.37122 5.16947 6.36048 5.94942 7.71781 6.17615C10.9375 5.08784 11.8056 3.32841 11.8371 2.58473C10.2462 1.75762 9.59597 2.27638 9.4697 2.63915V2.04058C9.81061 1.51819 10.8744 1.49643 11.3636 1.55084C11.4015 0.723726 12.137 0.172316 12.5 0C13.1818 0.261194 13.5732 1.14272 13.6837 1.55084C14.7822 1.42024 15.3725 1.82292 15.5303 2.04058V2.69356C15.2652 1.75762 13.8415 2.23103 13.1629 2.58473C13.428 4.50016 15.988 5.77711 17.2348 6.17615C20.928 5.52317 22.3011 4.38044 22.6799 3.8635C21.5057 2.88402 20.6439 3.36469 20.3599 3.72746C20.4356 2.70445 22.0013 2.66636 22.7746 2.77519C22.7367 2.33986 24.2424 1.77757 25 1.55084L21.0701 8.78809C15.5398 9.17988 13.0524 6.26685 12.5 4.76135C10.9091 8.5269 6.09218 9.01482 3.88258 8.78809Z" fill="#FBC558"/>
<path d="M4.64015 10.5294L4.07197 9.35946C7.32955 9.92538 11.048 9.97616 12.5 9.93082C16.4394 10.0179 19.7285 9.58619 20.8807 9.35946L20.3599 10.5294C19.0341 10.8559 14.5044 10.9738 12.5 10.9919C10.5303 11.0572 6.4394 10.7108 4.64015 10.5294Z" fill="#FBC558"/>
</svg>
